# xmcd CD database file
#
# Track frame offsets:
#	150
#	8707
#	22635
#	33190
#	47345
#	58577
#	69065
#	80220
#	90647
#	101957
#	112525
#	123545
#	133817
#	145480
#	156965
#	166920
#	176940
#	188610
#	197695
#	212225
#	223777
#	242675
#	253072
#	266135
#	279595
#
# Disc length: 3875 seconds
#
# Revision: 2
# Processed by: cddbd v1.5.2PL0 Copyright (c) Steve Scherf et al.
# Submitted via: CDex 1.79
#
DISCID=640f2119
DTITLE=Various Artist - Greetings From Texas
DYEAR=2004
DGENRE=Country
TTITLE0=Cowboys And Indians - Say Pardner
TTITLE1=Asleep At The Wheel - Miles And Miles Of Texas
TTITLE2=Darrell McCall - A Texas Honky Tonk
TTITLE3=Ernest Tubb and Sammi Smith - Waltz Across Texas
TTITLE4=Ernest Tubb - There's A Little Bit Of Everything In Texas
TTITLE5=Ole Rasmussen - Did The Man In The Moon Come From Texas
TTITLE6=Jimmie Dolan - All  Alone In Texas
TTITLE7=Tommy Duncan - Texas Moon
TTITLE8=Hank Locklin - Down Texas Way
TTITLE9=Gene O'Quin - Texas Boogie
TTITLE10=Tex Ritter - Love You As Big As Texas
TTITLE11=Tex Williams and Tennessee Ernie Ford - You Can Tell A Texan Everytime
TTITLE12=Roy Rogers - Yellow Rose Of Texas
TTITLE13=Rex Allen - Texas Tornado
TTITLE14=Bob Wills - Deep In The Heart Of Texas
TTITLE15=Wilf Carter - X's From Down In Texas
TTITLE16=Rex Allen and Tex Williams - Two Texas Boys
TTITLE17=Willie Nelson - Texas In My Soul
TTITLE18=Offenders - Can't Get The Hell Out Of Texas
TTITLE19=Sanford Clark - Mother Texas
TTITLE20=David Allan Coe - Texas Lullaby
TTITLE21=Grandpa Jones - T For Texas
TTITLE22=Hank Snow - Texas Silver Zephyr
TTITLE23=Billy Paul - Texas Rose
TTITLE24=Charlie Walker - I've Never Been Out Of Texas (But I've Seen Everything)
EXTD=
EXTT0=
EXTT1=
EXTT2=
EXTT3=
EXTT4=
EXTT5=
EXTT6=
EXTT7=
EXTT8=
EXTT9=
EXTT10=
EXTT11=
EXTT12=
EXTT13=
EXTT14=
EXTT15=
EXTT16=
EXTT17=
EXTT18=
EXTT19=
EXTT20=
EXTT21=
EXTT22=
EXTT23=
EXTT24=
PLAYORDER=
